<svg width="581" height="85" viewBox="0 0 581 85" fill="none" xmlns="http://www.w3.org/2000/svg">
<path d="M9.87504 71.7094C11.3151 72.2238 12.7809 72.6481 14.2724 72.9824C15.764 73.3424 17.2041 73.6253 18.5927 73.831C20.0071 74.0625 21.3572 74.2168 22.643 74.2939C23.9288 74.3968 25.0732 74.4482 26.0761 74.4482C29.1106 74.4482 31.7465 74.0753 33.9838 73.3296C36.2469 72.6095 38.1241 71.6323 39.6157 70.3979C41.1329 69.1635 42.2644 67.7234 43.0102 66.0776C43.756 64.4575 44.1289 62.7345 44.1289 60.9087V58.9414C43.1517 59.61 42.0073 60.2529 40.6958 60.8701C39.3842 61.4873 37.9441 62.0273 36.3754 62.4902C34.8068 62.9531 33.1352 63.326 31.3608 63.6089C29.6121 63.8917 27.7991 64.0332 25.9218 64.0332C22.193 64.0332 18.747 63.4803 15.5839 62.3745C12.4209 61.243 9.68214 59.6743 7.36764 57.6684C5.05322 55.6369 3.24024 53.2067 1.92871 50.3779C0.6429 47.5491 0 44.4118 0 40.9658C0 37.4427 0.68148 34.2539 2.04443 31.3994C3.40739 28.5192 5.28467 26.0633 7.67624 24.0317C10.0935 22.0001 12.948 20.4314 16.2397 19.3257C19.5314 18.2199 23.1059 17.667 26.9633 17.667C28.6092 17.667 30.2421 17.7698 31.8623 17.9756C33.4824 18.1813 35.0254 18.4642 36.4912 18.8242C37.9827 19.1842 39.3714 19.6214 40.6572 20.1357C41.9687 20.6243 43.1259 21.1644 44.1289 21.7558V18.477H55.5468V58.7871C55.5468 62.9274 54.9168 66.5919 53.6567 69.7807C52.3966 72.9695 50.545 75.644 48.102 77.8042C45.6847 79.99 42.6759 81.6359 39.0756 82.7417C35.4754 83.8732 31.3479 84.4389 26.6933 84.4389C25.0218 84.4389 23.2859 84.3618 21.4858 84.2075C19.6857 84.0789 17.8727 83.8732 16.0468 83.5903C14.2467 83.3331 12.4594 83.0117 10.685 82.6259C8.93634 82.2659 7.25194 81.8416 5.63184 81.353L9.87504 71.7094ZM11.9965 40.8501C11.9965 42.6759 12.3566 44.3989 13.0766 46.019C13.8224 47.6134 14.8768 49.0149 16.2397 50.2236C17.6027 51.4065 19.2485 52.3452 21.1772 53.0395C23.1059 53.7081 25.2789 54.0425 27.6963 54.0425C29.2649 54.0425 30.8208 53.901 32.3637 53.6181C33.9324 53.3095 35.424 52.8852 36.8383 52.3452C38.2784 51.8051 39.6157 51.1494 40.8501 50.3779C42.1101 49.6064 43.2031 48.7449 44.1289 47.7934V32.7881C42.9716 31.8623 41.7501 31.0779 40.4643 30.435C39.1785 29.7921 37.867 29.2649 36.5297 28.8535C35.1925 28.442 33.8424 28.1463 32.4795 27.9663C31.1165 27.7606 29.7921 27.6577 28.5063 27.6577C25.8833 27.6577 23.5431 28.0049 21.4858 28.6992C19.4542 29.3935 17.7312 30.345 16.3169 31.5537C14.9282 32.7366 13.861 34.1253 13.1152 35.7197C12.3694 37.3141 11.9965 39.0242 11.9965 40.8501ZM68.5463 18.477H79.9643V25.0346C82.4845 23.1574 85.1461 21.5372 87.9492 20.1743C90.7522 18.8113 93.5424 17.7698 96.3195 17.0498L99.6755 27.5034C95.2783 27.9406 91.408 28.9306 88.0649 30.4736C84.7475 31.9909 82.0473 34.1382 79.9643 36.9155V63.9946H68.5463V18.477ZM180.605 18.4384H193.836L205.678 45.8261L209.15 53.5024L213.393 43.5503L202.129 18.4384H213.239L218.755 31.9394L224.271 18.4384H235.38L224.078 43.5503L228.36 53.5024L231.832 45.8261L243.674 18.4384H256.905L235.342 63.9946H222.921L218.755 55.1997L214.589 63.9946H202.168L180.605 18.4384ZM270.329 69.7036C271.512 70.4751 272.797 71.1565 274.186 71.748C275.575 72.3395 277.015 72.8281 278.506 73.2138C280.024 73.5996 281.567 73.8825 283.135 74.0625C284.704 74.2682 286.26 74.3711 287.803 74.3711C293.049 74.3711 297.086 73.2396 299.915 70.9765C302.77 68.7392 304.197 65.3704 304.197 60.8701V59.3271C303.194 60.0215 302.062 60.6644 300.802 61.2558C299.568 61.8216 298.231 62.3102 296.791 62.7217C295.376 63.1331 293.872 63.4546 292.277 63.686C290.709 63.8917 289.114 63.9946 287.494 63.9946C284.022 63.9946 280.911 63.4931 278.159 62.4902C275.433 61.4616 273.119 59.97 271.216 58.0156C269.339 56.0355 267.898 53.6053 266.895 50.7251C265.893 47.8449 265.391 44.5532 265.391 40.8501V18.477H276.77V37.687C276.77 43.1902 277.812 47.2534 279.895 49.8764C282.004 52.4738 285.321 53.7724 289.847 53.7724C293.036 53.7724 295.852 53.2195 298.295 52.1137C300.764 50.9822 302.731 49.5421 304.197 47.7934V18.477H315.615V58.7871C315.615 63.1331 314.998 66.9005 313.763 70.0893C312.529 73.3038 310.729 75.9655 308.363 78.0742C306.023 80.1829 303.142 81.7516 299.722 82.7802C296.302 83.8346 292.419 84.3618 288.073 84.3618C283.83 84.3618 279.869 83.9118 276.192 83.0117C272.514 82.1116 269.146 80.8901 266.085 79.3471L270.329 69.7036ZM330.697 18.477H342.115V22.3344C344.97 20.5857 347.747 19.3771 350.447 18.7085C353.173 18.0141 355.835 17.667 358.432 17.667C362.058 17.667 365.388 18.2456 368.423 19.4028C371.457 20.56 374.055 22.3087 376.215 24.6489C377.886 23.3631 379.532 22.283 381.152 21.4087C382.772 20.5086 384.393 19.7885 386.013 19.2485C387.633 18.6828 389.279 18.2842 390.95 18.0527C392.622 17.7955 394.345 17.667 396.119 17.667C399.848 17.667 403.23 18.1813 406.264 19.2099C409.299 20.2129 411.883 21.7173 414.018 23.7231C416.178 25.729 417.836 28.2363 418.994 31.2451C420.177 34.2282 420.768 37.687 420.768 41.6216V63.9946H409.389V43.4731C409.389 40.9786 409.029 38.7542 408.309 36.7998C407.614 34.8196 406.624 33.1609 405.338 31.8237C404.078 30.4607 402.561 29.4321 400.787 28.7378C399.038 28.0177 397.109 27.6577 395 27.6577C393.843 27.6577 392.66 27.7734 391.452 28.0049C390.243 28.2106 389.06 28.5449 387.903 29.0078C386.771 29.4707 385.704 30.0621 384.701 30.7822C383.698 31.4765 382.824 32.2995 382.078 33.2509V63.9946H370.699V43.4731C370.699 40.9786 370.339 38.7542 369.619 36.7998C368.924 34.8196 367.934 33.1609 366.648 31.8237C365.388 30.4607 363.858 29.4321 362.058 28.7378C360.284 28.0177 358.329 27.6577 356.195 27.6577C354.883 27.6577 353.559 27.7991 352.222 28.082C350.91 28.3392 349.637 28.712 348.403 29.2007C347.194 29.6893 346.05 30.2807 344.97 30.9751C343.915 31.6694 342.964 32.4537 342.115 33.3281V63.9946H330.697V18.477ZM441.174 12.2666C440.042 12.2666 439.014 12.1123 438.088 11.8037C437.188 11.4694 436.416 11.0322 435.773 10.4922C435.131 9.9264 434.629 9.2835 434.269 8.5634C433.935 7.8177 433.768 7.0333 433.768 6.2104C433.768 5.3618 433.935 4.5774 434.269 3.8574C434.629 3.1116 435.131 2.4687 435.773 1.9287C436.416 1.3886 437.188 0.964301 438.088 0.655701C439.014 0.321401 440.042 0.154301 441.174 0.154301C442.331 0.154301 443.36 0.321401 444.26 0.655701C445.186 0.964301 445.97 1.3886 446.613 1.9287C447.256 2.4687 447.744 3.1116 448.079 3.8574C448.439 4.5774 448.619 5.3618 448.619 6.2104C448.619 7.0333 448.439 7.8177 448.079 8.5634C447.744 9.2835 447.256 9.9264 446.613 10.4922C445.97 11.0322 445.186 11.4694 444.26 11.8037C443.36 12.1123 442.331 12.2666 441.174 12.2666ZM435.465 18.477H446.883V63.9946H435.465V18.477ZM461.541 18.477H472.959V22.3344C475.993 20.6115 478.887 19.4028 481.638 18.7085C484.415 18.0141 487.129 17.667 489.777 17.667C493.249 17.667 496.464 18.1813 499.421 19.2099C502.378 20.2129 504.937 21.7173 507.097 23.7231C509.257 25.729 510.942 28.2363 512.15 31.2451C513.385 34.2282 514.002 37.687 514.002 41.6216V63.9946H502.623V43.4731C502.623 40.9786 502.263 38.7542 501.542 36.7998C500.848 34.8196 499.832 33.1609 498.495 31.8237C497.184 30.4607 495.576 29.4321 493.673 28.7378C491.796 28.0177 489.687 27.6577 487.347 27.6577C486.113 27.6577 484.84 27.7863 483.528 28.0434C482.242 28.3006 480.97 28.6735 479.709 29.1621C478.475 29.625 477.279 30.2164 476.122 30.9365C474.965 31.6308 473.91 32.428 472.959 33.3281V63.9946H461.541V18.477ZM524.533 41.4287C524.533 37.8027 525.214 34.5368 526.577 31.6308C527.94 28.6992 529.817 26.2047 532.209 24.1474C534.626 22.0644 537.481 20.47 540.772 19.3642C544.09 18.2327 547.677 17.667 551.535 17.667C553.18 17.667 554.801 17.7698 556.395 17.9756C558.015 18.1813 559.558 18.4642 561.024 18.8242C562.515 19.1842 563.904 19.6214 565.19 20.1357C566.501 20.6243 567.659 21.1644 568.662 21.7558V0H580.08V63.9946H568.662V59.7129C567.659 60.4072 566.476 61.063 565.113 61.6801C563.75 62.2973 562.284 62.8374 560.715 63.3003C559.147 63.7632 557.514 64.1232 555.816 64.3803C554.145 64.6632 552.486 64.8047 550.84 64.8047C546.983 64.8047 543.434 64.2389 540.194 63.1074C536.979 61.9759 534.215 60.3815 531.9 58.3242C529.586 56.2669 527.773 53.811 526.461 50.9565C525.176 48.0763 524.533 44.9004 524.533 41.4287ZM536.529 41.4287C536.529 43.2545 536.889 44.9775 537.609 46.5976C538.355 48.2177 539.409 49.645 540.772 50.8794C542.161 52.088 543.82 53.0524 545.749 53.7724C547.703 54.4668 549.889 54.8139 552.306 54.8139C553.849 54.8139 555.392 54.6725 556.935 54.3896C558.478 54.081 559.957 53.6567 561.371 53.1167C562.811 52.5766 564.148 51.9209 565.383 51.1494C566.643 50.3779 567.736 49.5164 568.662 48.5649V32.7881C567.504 31.8623 566.283 31.0779 564.997 30.435C563.711 29.7921 562.4 29.2649 561.062 28.8535C559.725 28.442 558.375 28.1463 557.012 27.9663C555.649 27.7606 554.325 27.6577 553.039 27.6577C550.416 27.6577 548.076 28.0177 546.019 28.7378C543.987 29.4321 542.264 30.3965 540.85 31.6308C539.461 32.8652 538.394 34.3182 537.648 35.9897C536.902 37.6613 536.529 39.4743 536.529 41.4287Z" fill="#D4D4D4"/>
<path d="M109.967 41.2658C109.987 41.2949 110.015 41.3174 110.034 41.3488C110.612 42.29 111.326 42.6637 111.892 42.8127C112.235 41.23 113.218 39.8271 114.653 38.98C114.856 38.8599 115.078 38.8035 115.298 38.8035C115.729 38.8035 116.15 39.0229 116.385 39.4175C116.742 40.013 116.544 40.7826 115.945 41.1369C114.893 41.7582 114.253 42.8978 114.279 44.1111C114.309 45.5534 115.259 46.8195 116.64 47.2594C117.305 47.4701 117.672 48.1772 117.459 48.8366C117.247 49.4958 116.528 49.8575 115.87 49.649C113.855 49.008 112.383 47.358 111.919 45.3673C111.145 45.2675 110.141 44.9685 109.192 44.186C108.817 45.0768 108.603 46.0278 108.603 47.012C108.603 49.7264 110.101 52.2117 112.511 53.4973C112.54 53.5125 112.558 53.5409 112.585 53.5583C112.614 53.577 112.649 53.5812 112.678 53.6028C112.828 53.7146 116.046 56.0205 120.089 53.6658C118.764 51.5261 118.9 48.7017 120.651 46.7143C120.901 46.4299 121.251 46.2855 121.602 46.2855C121.898 46.2855 122.195 46.3872 122.434 46.5955C122.959 47.0526 123.013 47.8455 122.554 48.3663C121.318 49.7682 121.46 51.9056 122.871 53.1309C123.555 53.7264 124.435 54.017 125.337 53.9605C126.243 53.9018 127.071 53.4949 127.668 52.8172C128.131 52.2939 128.929 52.2437 129.452 52.6983C129.978 53.1554 130.031 53.9484 129.572 54.4692C128.528 55.653 127.083 56.3613 125.503 56.4656C124.212 56.5469 122.963 56.199 121.894 55.5081C118.231 57.9013 114.699 57.3898 112.525 56.4039C112.43 56.7722 112.378 57.1515 112.378 57.5341C112.378 59.6828 113.888 61.478 115.906 61.956C116.157 60.8611 116.706 59.3737 117.895 58.6102C118.108 58.4742 118.346 58.4092 118.581 58.4092C118.996 58.4092 119.401 58.6114 119.643 58.9829C120.023 59.565 119.855 60.3418 119.268 60.7181C118.68 61.095 118.335 62.4535 118.248 63.2439C118.257 63.3343 118.288 63.4221 118.276 63.5135C118.248 63.7193 118.23 63.9314 118.23 64.1446C118.23 66.3078 119.76 68.1156 121.8 68.5786C121.917 67.0541 122.368 64.6445 123.981 62.8419C125.121 61.568 126.647 60.8409 128.486 60.6155C129.166 59.2506 130.565 58.4093 132.056 58.4093C132.491 58.4093 132.932 58.4805 133.364 58.63C134.023 58.858 134.371 59.5736 134.142 60.2281C133.912 60.8825 133.195 61.2268 132.532 61.0002C131.771 60.7342 130.937 61.1375 130.671 61.8948C130.407 62.6497 130.811 63.4793 131.572 63.7428C132.231 63.9719 132.579 64.6865 132.349 65.3408C132.119 65.9964 131.393 66.3408 130.741 66.1131C129.377 65.6407 128.447 64.4995 128.164 63.1905C127.234 63.4065 126.476 63.835 125.879 64.5013C124.32 66.2331 124.277 69.0118 124.292 69.7057C124.819 71.2725 126.318 72.3592 127.991 72.3592C128.438 72.3592 128.872 72.2572 129.288 72.1102C129.564 70.9324 130.288 68.7164 131.969 67.7281C132.17 67.6093 132.393 67.5529 132.611 67.5529C133.044 67.5529 133.465 67.7723 133.7 68.168C134.056 68.7649 133.858 69.5344 133.257 69.8874C132.482 70.3431 131.95 71.7593 131.726 72.7811C132.19 73.5171 132.987 73.9946 133.872 73.9946C135.283 73.9946 136.429 72.8562 136.429 71.4566V53.4028C136.429 51.7063 135.544 50.1242 134.134 49.2076C132.383 50.0926 129.248 50.6822 126.337 48.2213C125.804 47.7717 125.741 46.9787 126.194 46.4518C126.444 46.16 126.799 46.0105 127.157 46.0105C127.447 46.0105 127.738 46.1087 127.975 46.3096C130.614 48.5413 133.114 46.926 133.388 46.7336C133.405 46.7225 133.424 46.7217 133.441 46.7115C133.469 46.6931 133.491 46.6686 133.521 46.6527C135.314 45.6932 136.429 43.8402 136.429 41.8194V30.7091C136.429 29.612 136.1 28.559 135.488 27.6527C135.189 27.3562 133.564 25.8893 130.668 25.8893C130.576 25.8893 130.483 25.8905 130.389 25.8929C130.376 25.8942 130.361 25.8942 130.347 25.8942C129.668 25.8942 129.107 25.3586 129.086 24.6797C129.062 23.9874 129.609 23.4076 130.307 23.3855C130.428 23.3805 130.548 23.3794 130.667 23.3794C133.157 23.3794 134.966 24.2219 136.092 24.9597C136.306 24.3981 136.429 23.8038 136.429 23.1882V14.551C136.429 12.0388 134.37 9.99463 131.84 9.99463C129.85 9.99463 128.098 11.2557 127.479 13.1319C127.467 13.1681 127.436 13.192 127.42 13.2266C127.378 13.3259 127.344 13.4278 127.273 13.5167C127.116 13.7237 125.993 15.3662 127.572 17.7057C128.103 17.4765 128.665 17.3537 129.226 17.3537C130.522 17.3537 131.802 17.9495 132.619 19.0707C133.028 19.6319 132.901 20.4163 132.335 20.8231C131.771 21.2289 130.981 21.1037 130.57 20.5413C130.035 19.8084 129 19.6441 128.264 20.1735C127.526 20.703 127.36 21.73 127.893 22.4615C128.302 23.0227 128.175 23.8083 127.609 24.2139C127.045 24.6208 126.254 24.4934 125.845 23.9319C124.835 22.5447 124.818 20.7418 125.654 19.3596C123.922 16.9676 124.021 14.7277 124.583 13.2377C124.028 13.0071 123.435 12.8744 122.82 12.8744C120.289 12.8744 118.23 14.9185 118.23 17.4308C118.23 17.6563 118.248 17.877 118.281 18.0938C118.289 18.1486 118.272 18.1989 118.273 18.2528C118.275 18.3065 118.294 18.3554 118.288 18.4101C118.058 20.6085 119.686 22.2114 119.702 22.2261C120.209 22.7029 120.23 23.4982 119.749 24.0006C119.267 24.5032 118.469 24.5252 117.963 24.0472C117.878 23.9673 116.253 22.3707 115.847 19.9156C113.274 20.9223 111.514 23.3846 111.514 26.2373C111.514 27.6503 111.947 29.0068 112.768 30.16C112.775 30.1689 112.775 30.1805 112.78 30.1898C112.845 30.286 112.903 30.3884 112.94 30.5046C113.766 33.0892 116.5 33.6858 118.057 33.8146C118.494 30.2979 121.515 27.5645 125.172 27.5645C129.127 27.5645 132.346 30.7606 132.346 34.6894C132.346 35.9009 132.021 37.0783 131.44 38.1251C132.685 38.6569 133.723 39.6613 134.234 41.0191C134.478 41.6685 134.145 42.3917 133.491 42.633C132.839 42.8756 132.109 42.546 131.866 41.8965C131.362 40.5558 129.854 39.8708 128.501 40.3708C127.15 40.8708 126.462 42.3696 126.965 43.7102C127.208 44.3597 126.876 45.0828 126.222 45.3254C125.567 45.5619 124.842 45.2372 124.595 44.5878C123.606 41.9492 124.963 39.0031 127.618 38.0191C127.961 37.8921 128.31 37.8148 128.659 37.7633C128.674 37.7436 128.678 37.7194 128.694 37.7005C129.419 36.8635 129.818 35.7948 129.818 34.6894C129.818 32.1441 127.734 30.0743 125.172 30.0743C122.609 30.0743 120.524 32.144 120.524 34.6894C120.524 36.0731 121.144 37.3732 122.222 38.2557C122.761 38.6957 122.838 39.4874 122.393 40.0217C121.952 40.5571 121.156 40.6331 120.615 40.1919C119.39 39.1908 118.555 37.8387 118.196 36.3436C116.377 36.2467 112.897 35.6368 111.159 32.6443C109.582 33.7359 108.603 35.5221 108.603 37.4835C108.603 38.8573 109.064 40.1464 109.935 41.2114C109.948 41.2283 109.954 41.2486 109.967 41.2658Z" fill="#D4D4D4"/>
<path d="M153.981 48.2217C150.924 50.6824 147.633 50.0928 145.794 49.2079C144.315 50.1247 143.385 51.7066 143.385 53.4031V71.4566C143.385 72.8561 144.588 73.9946 146.07 73.9946C146.999 73.9946 147.837 73.5171 148.323 72.7805C148.087 71.7585 147.529 70.3426 146.716 69.8869C146.085 69.534 145.877 68.7642 146.25 68.1675C146.498 67.7716 146.94 67.5522 147.394 67.5522C147.623 67.5522 147.856 67.6085 148.068 67.7275C149.832 68.7159 150.592 70.9317 150.882 72.1096C151.32 72.2565 151.775 72.3586 152.245 72.3586C154.001 72.3586 155.575 71.2717 156.128 69.7051C156.144 69.0112 156.098 66.2326 154.462 64.5009C153.835 63.8344 153.039 63.4058 152.063 63.1896C151.766 64.4988 150.789 65.6399 149.358 66.1122C148.672 66.3402 147.911 65.9958 147.668 65.3402C147.427 64.6856 147.793 63.9714 148.485 63.7423C149.284 63.4787 149.707 62.6491 149.43 61.894C149.152 61.1369 148.276 60.7336 147.476 60.9993C146.781 61.2262 146.028 60.8819 145.786 60.2274C145.546 59.5731 145.911 58.8572 146.604 58.6296C147.058 58.4801 147.521 58.4088 147.976 58.4088C149.543 58.4088 151.012 59.2501 151.726 60.615C153.656 60.8405 155.258 61.5675 156.456 62.8412C158.149 64.6439 158.623 67.0536 158.744 68.5781C160.886 68.1151 162.493 66.3072 162.493 64.1442C162.493 63.9308 162.475 63.7189 162.445 63.513C162.432 63.4216 162.464 63.3337 162.476 63.2433C162.383 62.453 162.02 61.0944 161.403 60.7176C160.788 60.3414 160.612 59.5644 161.009 58.9824C161.263 58.6109 161.69 58.4088 162.125 58.4088C162.371 58.4088 162.621 58.4737 162.844 58.6098C164.095 59.3733 164.67 60.8607 164.933 61.9553C167.052 61.4774 168.639 59.6824 168.639 57.5338C168.639 57.1512 168.584 56.7718 168.483 56.4037C166.2 57.3894 162.492 57.9007 158.647 55.5077C157.525 56.1985 156.212 56.5465 154.856 56.4651C153.198 56.361 151.68 55.6528 150.586 54.4688C150.104 53.948 150.159 53.1553 150.712 52.6981C151.26 52.2434 152.098 52.2935 152.583 52.8168C153.211 53.4946 154.08 53.9015 155.031 53.9603C155.978 54.0166 156.902 53.7262 157.62 53.1305C159.102 51.905 159.25 49.7679 157.953 48.3659C157.471 47.8452 157.527 47.0523 158.079 46.5953C158.331 46.3871 158.641 46.2851 158.953 46.2851C159.323 46.2851 159.689 46.4298 159.952 46.7139C161.791 48.7014 161.932 51.5259 160.541 53.6653C164.786 56.02 168.166 53.7141 168.323 53.6024C168.354 53.5808 168.389 53.5766 168.421 53.5578C168.45 53.5406 168.468 53.5122 168.498 53.4968C171.029 52.2115 172.603 49.726 172.603 47.0115C172.603 46.0277 172.377 45.0765 171.983 44.1857C170.987 44.9682 169.931 45.2673 169.121 45.367C168.633 47.3577 167.086 49.0076 164.97 49.6487C164.28 49.857 163.526 49.4955 163.303 48.8362C163.079 48.177 163.464 47.4699 164.162 47.2591C165.614 46.8192 166.61 45.5532 166.641 44.1107C166.668 42.8975 165.997 41.7577 164.893 41.1366C164.263 40.7824 164.056 40.0129 164.43 39.4172C164.679 39.0226 165.119 38.8032 165.573 38.8032C165.803 38.8032 166.036 38.8597 166.248 38.9798C167.756 39.8267 168.788 41.2296 169.147 42.8124C169.741 42.6634 170.491 42.2898 171.099 41.3485C171.119 41.3172 171.147 41.2946 171.17 41.2655C171.183 41.2482 171.189 41.228 171.202 41.2114C172.117 40.1462 172.603 38.857 172.603 37.4834C172.603 35.5222 171.573 33.736 169.919 32.6442C168.093 35.6365 164.439 36.2465 162.528 36.3434C162.153 37.8384 161.275 39.1906 159.989 40.1916C159.422 40.6327 158.586 40.5568 158.122 40.0213C157.656 39.4871 157.736 38.6954 158.302 38.2554C159.435 37.3733 160.084 36.0728 160.084 34.6892C160.084 32.1441 157.895 30.0741 155.205 30.0741C152.515 30.0741 150.326 32.1441 150.326 34.6892C150.326 35.7948 150.746 36.8633 151.506 37.7002C151.523 37.7195 151.528 37.7434 151.544 37.7631C151.91 37.8146 152.276 37.8919 152.636 38.0187C155.425 39.0028 156.849 41.9492 155.81 44.5875C155.552 45.237 154.791 45.5617 154.102 45.3252C153.416 45.0824 153.067 44.3594 153.322 43.7099C153.851 42.3692 153.127 40.8707 151.709 40.3707C150.288 39.8706 148.704 40.5555 148.177 41.8963C147.921 42.5459 147.155 42.8754 146.47 42.6328C145.783 42.3914 145.435 41.6682 145.691 41.0189C146.226 39.6611 147.317 38.6568 148.623 38.1249C148.013 37.078 147.672 35.9007 147.672 34.6892C147.672 30.7605 151.052 27.5646 155.205 27.5646C159.044 27.5646 162.217 30.2977 162.675 33.8143C164.31 33.6856 167.18 33.0891 168.047 30.5043C168.086 30.3882 168.148 30.2858 168.215 30.1896C168.222 30.1804 168.222 30.1687 168.229 30.1599C169.09 29.0067 169.546 27.65 169.546 26.2372C169.546 23.3844 167.697 20.9222 164.995 19.9155C164.57 22.3708 162.863 23.967 162.774 24.0471C162.243 24.525 161.404 24.5031 160.898 24.0005C160.394 23.4982 160.416 22.7028 160.947 22.2262C160.965 22.2116 162.675 20.6085 162.432 18.4101C162.426 18.3555 162.447 18.3065 162.448 18.2529C162.449 18.1988 162.431 18.1488 162.44 18.0938C162.475 17.8771 162.493 17.6565 162.493 17.4309C162.493 14.9186 160.331 12.8745 157.674 12.8745C157.028 12.8745 156.405 13.0071 155.822 13.238C156.412 14.7278 156.516 16.9676 154.698 19.3599C155.576 20.7417 155.558 22.5449 154.499 23.9319C154.068 24.4933 153.237 24.6208 152.645 24.2138C152.052 23.8081 151.918 23.0228 152.348 22.4614C152.908 21.7299 152.732 20.7028 151.957 20.1734C151.184 19.644 150.098 19.8082 149.537 20.5412C149.105 21.1036 148.275 21.2287 147.683 20.823C147.089 20.4162 146.956 19.632 147.386 19.0706C148.243 17.9493 149.587 17.3536 150.947 17.3536C151.537 17.3536 152.127 17.4766 152.684 17.7057C154.342 15.366 153.163 13.7237 152.998 13.5166C152.924 13.4277 152.888 13.3257 152.843 13.2265C152.827 13.1919 152.794 13.168 152.782 13.1318C152.132 11.2555 150.292 9.99463 148.203 9.99463C145.547 9.99463 143.385 12.0386 143.385 14.5509V23.188C143.385 23.8036 143.515 24.398 143.739 24.9595C144.92 24.2216 146.821 23.3793 149.436 23.3793C149.56 23.3793 149.686 23.3806 149.813 23.3855C150.547 23.4075 151.12 23.9871 151.096 24.6794C151.072 25.3585 150.484 25.8938 149.772 25.8938C149.756 25.8938 149.742 25.8938 149.727 25.8927C149.627 25.8903 149.53 25.8891 149.435 25.8891C146.394 25.8891 144.687 27.356 144.374 27.6525C143.731 28.5589 143.385 29.6118 143.385 30.7088V41.8198C143.385 43.8405 144.555 45.6935 146.439 46.6531C146.47 46.6689 146.494 46.6933 146.523 46.7117C146.541 46.7218 146.56 46.7229 146.577 46.7338C146.866 46.9263 149.49 48.5415 152.261 46.3098C152.511 46.109 152.817 46.0109 153.122 46.0109C153.496 46.0109 153.869 46.1603 154.131 46.4521C154.607 46.9792 154.54 47.7717 153.981 48.2217Z" fill="#D4D4D4"/>
</svg>
